<?xml version="1.0" encoding="UTF-8" standalone="no"?>


<svg
   width="44mm"
   height="7.0999999mm"
   viewBox="0 0 44 7.0999999"
   version="1.1"
   id="svg7506"
   xmlns="http://www.w3.org/2000/svg"
   xmlns:svg="http://www.w3.org/2000/svg">
  <defs
     id="defs7503" />
  <g
     id="layer1">
    <g
       id="g7666"
       transform="matrix(1.0044495,0,0,1.0044495,-647.5157,-4104.3326)">
      <g
         id="g5288"
         transform="matrix(0.35277777,0,0,-0.35277777,688.45244,4091.1705)"
         style="fill:#f9f9f9">
        <path
           d="m 0,0 -0.032,-0.093 c -0.314,-0.906 -0.786,-1.7 -1.403,-2.359 -0.619,-0.66 -1.371,-1.17 -2.237,-1.516 -0.864,-0.345 -1.844,-0.521 -2.911,-0.521 -1.48,0 -2.793,0.347 -3.904,1.03 -1.111,0.683 -1.988,1.664 -2.605,2.915 -0.615,1.246 -0.927,2.75 -0.927,4.47 0,1.719 0.307,3.223 0.914,4.47 0.609,1.25 1.482,2.23 2.593,2.915 1.112,0.683 2.426,1.029 3.904,1.029 1.099,0 2.077,-0.154 2.908,-0.458 0.834,-0.306 1.55,-0.767 2.129,-1.37 0.579,-0.603 1.022,-1.353 1.319,-2.226 L -0.223,8.2 -1.606,7.551 -1.642,7.659 c -0.367,1.099 -0.954,1.941 -1.748,2.505 -0.794,0.563 -1.852,0.849 -3.144,0.849 -1.181,0 -2.236,-0.287 -3.137,-0.853 -0.9,-0.565 -1.607,-1.381 -2.102,-2.426 -0.496,-1.049 -0.748,-2.331 -0.748,-3.808 0,-1.462 0.248,-2.739 0.736,-3.796 0.487,-1.053 1.186,-1.874 2.078,-2.439 0.891,-0.566 1.942,-0.852 3.124,-0.852 1.277,0 2.376,0.311 3.268,0.923 0.889,0.611 1.517,1.511 1.868,2.672 l 0.031,0.104 z"
           style="fill:#f9f9f9;fill-opacity:1;fill-rule:nonzero;stroke:none"
           id="path5290" />
      </g>
      <g
         id="g5292"
         transform="matrix(0.35277777,0,0,-0.35277777,681.89818,4090.414)"
         style="fill:#f9f9f9">
        <path
           d="m 0,0 h -6.525 l 3.251,8.373 z m -2.473,9.951 h -1.58 l -6.48,-16.201 -0.055,-0.139 h 1.514 l 2.029,5.062 H 0.52 l 2.029,-5.062 h 1.514 z"
           style="fill:#f9f9f9;fill-opacity:1;fill-rule:nonzero;stroke:none"
           id="path5294" />
      </g>
      <g
         id="g5296"
         transform="matrix(0.35277777,0,0,-0.35277777,672.14709,4086.1513)">
        <path
           d="m 0,0 4.551,-7.108 -2.763,-0.011 4.208,-5.273 -2.923,0.045 9.304,-7.653 -3.908,6.512 2.839,-0.153 -4.093,5.154 2.922,0.038 z"
           style="fill:#dbb584;fill-opacity:1;fill-rule:nonzero;stroke:none"
           id="path5298" />
      </g>
      <g
         id="g5300"
         transform="matrix(0.35277777,0,0,-0.35277777,671.97931,4086.1513)">
        <path
           d="m 0,0 -4.551,-7.108 2.763,-0.011 -4.208,-5.273 2.923,0.045 -9.304,-7.653 3.908,6.512 -2.839,-0.153 4.093,5.154 -2.922,0.038 z"
           style="fill:#dbb584;fill-opacity:1;fill-rule:nonzero;stroke:none"
           id="path5302" />
      </g>
      <g
         id="g5304"
         transform="matrix(0.35277777,0,0,-0.35277777,644.64735,4091.5491)"
         style="fill:#f9f9f9">
        <path
           d="m 0,0 1.355,0.813 c 0.954,-1.756 2.055,-2.634 3.306,-2.634 0.534,0 1.036,0.125 1.506,0.374 0.47,0.249 0.828,0.583 1.073,1.003 0.246,0.419 0.369,0.863 0.369,1.333 0,0.534 -0.181,1.058 -0.542,1.571 C 6.568,3.168 5.658,4.021 4.335,5.018 3.006,6.023 2.179,6.749 1.853,7.197 1.29,7.948 1.008,8.761 1.008,9.636 c 0,0.693 0.166,1.325 0.499,1.896 0.332,0.571 0.8,1.021 1.403,1.35 0.603,0.329 1.259,0.493 1.967,0.493 0.752,0 1.455,-0.186 2.109,-0.558 0.653,-0.372 1.345,-1.057 2.075,-2.054 l -1.3,-0.987 c -0.6,0.795 -1.111,1.319 -1.534,1.572 -0.423,0.253 -0.884,0.379 -1.382,0.379 -0.643,0 -1.169,-0.195 -1.577,-0.585 C 2.86,10.752 2.656,10.271 2.656,9.701 2.656,9.354 2.728,9.018 2.872,8.693 3.017,8.367 3.28,8.013 3.663,7.63 3.873,7.428 4.559,6.897 5.723,6.037 7.103,5.018 8.049,4.111 8.563,3.317 9.076,2.522 9.332,1.723 9.332,0.921 9.332,-0.235 8.893,-1.239 8.015,-2.092 7.137,-2.945 6.07,-3.371 4.812,-3.371 3.844,-3.371 2.966,-3.112 2.179,-2.596 1.391,-2.079 0.665,-1.214 0,0"
           style="fill:#f9f9f9;fill-opacity:1;fill-rule:nonzero;stroke:none"
           id="path5306" />
      </g>
      <g
         id="g5308"
         transform="matrix(0.35277777,0,0,-0.35277777,651.04625,4088.8457)"
         style="fill:#f9f9f9">
        <path
           d="m 0,0 c -0.844,0 -1.624,-0.208 -2.338,-0.623 -0.715,-0.415 -1.283,-0.998 -1.706,-1.748 -0.422,-0.751 -0.633,-1.545 -0.633,-2.382 0,-0.83 0.213,-1.624 0.639,-2.382 0.425,-0.757 0.998,-1.348 1.716,-1.77 0.718,-0.422 1.488,-0.633 2.311,-0.633 0.83,0 1.617,0.209 2.36,0.628 0.744,0.418 1.316,0.985 1.716,1.699 0.401,0.715 0.601,1.52 0.601,2.415 0,1.364 -0.449,2.504 -1.348,3.421 C 2.42,-0.458 1.314,0 0,0 M 6.064,1.16 V -10.633 H 4.569 v 2.027 c -0.636,-0.773 -1.35,-1.355 -2.141,-1.745 -0.791,-0.39 -1.657,-0.585 -2.596,-0.585 -1.669,0 -3.094,0.605 -4.276,1.815 -1.181,1.21 -1.772,2.683 -1.772,4.417 0,1.698 0.596,3.15 1.788,4.357 1.193,1.207 2.627,1.81 4.303,1.81 0.969,0 1.845,-0.206 2.629,-0.618 0.784,-0.411 1.472,-1.029 2.065,-1.853 V 1.16 Z"
           style="fill:#f9f9f9;fill-opacity:1;fill-rule:nonzero;stroke:none"
           id="path5310" />
      </g>
      <g
         id="g5312"
         transform="matrix(0.35277777,0,0,-0.35277777,654.39002,4088.4366)"
         style="fill:#f9f9f9">
        <path
           d="m 0,0 h 1.517 v -2.114 c 0.607,0.81 1.279,1.415 2.016,1.816 0.737,0.401 1.54,0.601 2.407,0.601 0.881,0 1.663,-0.224 2.346,-0.672 0.683,-0.448 1.187,-1.051 1.512,-1.81 0.325,-0.758 0.488,-1.94 0.488,-3.544 v -6.07 H 8.769 v 5.626 c 0,1.358 -0.057,2.265 -0.169,2.72 -0.176,0.781 -0.513,1.368 -1.012,1.762 -0.499,0.393 -1.149,0.59 -1.951,0.59 -0.918,0 -1.74,-0.303 -2.467,-0.91 C 2.444,-2.612 1.965,-3.364 1.734,-4.26 1.59,-4.845 1.517,-5.914 1.517,-7.468 v -4.325 H 0 Z"
           style="fill:#f9f9f9;fill-opacity:1;fill-rule:nonzero;stroke:none"
           id="path5314" />
      </g>
      <g
         id="g5316"
         transform="matrix(0.35277777,0,0,-0.35277777,659.63226,4086.8918)"
         style="fill:#f9f9f9">
        <path
           d="M 0,0 H 1.517 V -4.379 H 3.924 V -5.69 H 1.517 V -16.171 H 0 V -5.69 h -2.07 v 1.311 H 0 Z"
           style="fill:#f9f9f9;fill-opacity:1;fill-rule:nonzero;stroke:none"
           id="path5318" />
      </g>
      <g
         id="g5320"
         transform="matrix(0.35277777,0,0,-0.35277777,663.82488,4088.8457)"
         style="fill:#f9f9f9">
        <path
           d="m 0,0 c -0.844,0 -1.624,-0.208 -2.338,-0.623 -0.715,-0.415 -1.284,-0.998 -1.706,-1.748 -0.422,-0.751 -0.633,-1.545 -0.633,-2.382 0,-0.83 0.213,-1.624 0.639,-2.382 0.425,-0.757 0.998,-1.348 1.716,-1.77 0.718,-0.422 1.488,-0.633 2.311,-0.633 0.83,0 1.617,0.209 2.36,0.628 0.744,0.418 1.315,0.985 1.716,1.699 0.401,0.715 0.601,1.52 0.601,2.415 0,1.364 -0.449,2.504 -1.348,3.421 C 2.42,-0.458 1.314,0 0,0 M 6.064,1.16 V -10.633 H 4.568 v 2.027 c -0.635,-0.773 -1.349,-1.355 -2.14,-1.745 -0.791,-0.39 -1.657,-0.585 -2.596,-0.585 -1.669,0 -3.094,0.605 -4.276,1.815 -1.181,1.21 -1.772,2.683 -1.772,4.417 0,1.698 0.596,3.15 1.788,4.357 1.193,1.207 2.627,1.81 4.303,1.81 0.969,0 1.845,-0.206 2.629,-0.618 0.784,-0.411 1.472,-1.029 2.064,-1.853 V 1.16 Z"
           style="fill:#f9f9f9;fill-opacity:1;fill-rule:nonzero;stroke:none"
           id="path5322" />
      </g>
    </g>
  </g>
</svg>
